Coordinates
version=1
nRows=21
nColumns=22
inDegrees=yes

Units are S.I. units (second, meters, Newtons, ...)
If the header above contains a line with 'inDegrees', this indicates whether rotational values are in degrees (yes) or radians (no).

endheader
time	pelvis_tilt	pelvis_list	pelvis_rotation	pelvis_tx	pelvis_ty	pelvis_tz	hip_flexion_r	hip_adduction_r	hip_rotation_r	knee_angle_r	ankle_angle_r	subtalar_angle_r	hip_flexion_l	hip_adduction_l	hip_rotation_l	knee_angle_l	ankle_angle_l	subtalar_angle_l	lumbar_extension	lumbar_bending	lumbar_rotation
      0.01000000	     -9.88392642	      2.78974697	    -31.12397784	     -1.00242010	      0.88408818	     -0.39146583	      9.36580790	      1.00239080	      1.47546072	     -4.70105597	      9.92325861	     -1.97695854	      9.16167820	     -4.26856614	      2.23444611	     -5.71809815	     12.02608157	      1.42305787	      4.81078266	      0.85929731	     13.46169346
      0.02000000	     -9.89927375	      2.81832723	    -31.17024103	     -1.00219744	      0.88405936	     -0.39149034	      9.36488859	      0.97870090	      1.54621230	     -4.65870850	      9.90944698	     -2.00736684	      9.11407670	     -4.24702209	      2.21454479	     -5.60978239	     11.96393673	      1.47109083	      4.86183998	      0.84968413	     13.44970929
      0.03000000	     -9.90972723	      2.83045276	    -31.19921054	     -1.00195401	      0.88403838	     -0.39157233	      9.36211130	      0.96263576	      1.56108700	     -4.64095121	      9.90659779	     -2.01104665	      9.08827568	     -4.23038602	      2.17854394	     -5.56491465	     11.97116355	      1.47788727	      4.89067469	      0.85274953	     13.39016301
      0.04000000	     -9.91581122	      2.85868871	    -31.23856177	     -1.00165665	      0.88402356	     -0.39164757	      9.33404002	      0.92641353	      1.61977103	     -4.56971304	      9.88693980	     -2.01270869	      9.04580484	     -4.19572186	      2.14172284	     -5.48703556	     11.92588652	      1.50084350	      4.93156322	      0.84013813	     13.36198055
      0.05000000	     -9.93113565	      2.86911297	    -31.26801304	     -1.00137662	      0.88400063	     -0.39175262	      9.33106029	      0.91159533	      1.62425565	     -4.54742085	      9.88229831	     -2.01087115	      9.02089867	     -4.18072288	      2.09989185	     -5.43795453	     11.92812856	      1.50453766	      4.96202059	      0.85080227	     13.29705060
      0.06000000	     -9.94661036	      2.88909602	    -31.29405179	     -1.00106755	      0.88398186	     -0.39186567	      9.30592113	      0.88429252	      1.65079463	     -4.47411910	      9.85323221	     -1.99556246	      8.99149042	     -4.15556398	      2.06656586	     -5.36877163	     11.87625373	      1.52487099	      4.99949940	      0.85303375	     13.24902157
      0.07000000	     -9.96471067	      2.89769309	    -31.31801463	     -1.00079039	      0.88395771	     -0.39198952	      9.30535078	      0.87090287	      1.64777857	     -4.45285259	      9.84803976	     -1.99128606	      8.97382171	     -4.14300033	      2.02887878	     -5.32536126	     11.87556611	      1.52986180	      5.02475342	      0.86701730	     13.18316226
      0.08000000	     -9.99066662	      2.91257894	    -31.32588324	     -1.00050107	      0.88392906	     -0.39215127	      9.29421826	      0.85080120	      1.64673032	     -4.38940697	      9.81865200	     -1.97110327	      8.96705806	     -4.12528203	      2.00812480	     -5.27165856	     11.82301134	      1.55969151	      5.05634980	      0.88045873	     13.11856564
      0.09000000	    -10.01056049	      2.92024286	    -31.34428558	     -1.00024521	      0.88390481	     -0.39229531	      9.29948885	      0.83834733	      1.64297587	     -4.37357251	      9.81195042	     -1.96590134	      8.95794552	     -4.11463424	      1.97786868	     -5.23526828	     11.81961638	      1.56941745	      5.07189495	      0.89578655	     13.05335430
      0.10000000	    -10.04361349	      2.93375138	    -31.34368342	     -0.99999224	      0.88386912	     -0.39248004	      9.30620899	      0.82354124	      1.63168849	     -4.32916444	      9.78562269	     -1.94696313	      8.97230428	     -4.10222371	      1.96950627	     -5.20089011	     11.76763646	      1.61793076	      5.09852588	      0.91125413	     12.98606458
      0.11000000	    -10.06454048	      2.94054575	    -31.35900865	     -0.99977541	      0.88384549	     -0.39263695	      9.31941711	      0.81380785	      1.63103217	     -4.32168229	      9.77904928	     -1.94256607	      8.97223482	     -4.09374175	      1.94685076	     -5.17323347	     11.76394213	      1.63504363	      5.10243191	      0.92437927	     12.92754793
      0.12000000	    -10.08708057	      2.94817031	    -31.37517389	     -0.99954799	      0.88382518	     -0.39278670	      9.33213349	      0.80435609	      1.63046889	     -4.31195393	      9.77051225	     -1.93944409	      8.97614943	     -4.08546871	      1.92717424	     -5.15198002	     11.74588213	      1.65494822	      5.11116682	      0.93856770	     12.87122994
      0.13000000	    -10.13246927	      2.96734025	    -31.37619801	     -0.99936839	      0.88377791	     -0.39297913	      9.37173135	      0.79484730	      1.62750415	     -4.29248298	      9.74207661	     -1.93169318	      9.01871049	     -4.07819584	      1.92987664	     -5.13502640	     11.68303539	      1.74724638	      5.14018444	      0.94980623	     12.82376806
      0.14000000	    -10.14987861	      2.97266223	    -31.39794586	     -0.99918938	      0.88376746	     -0.39313065	      9.38936532	      0.78715154	      1.63504703	     -4.29590943	      9.73757137	     -1.93184753	      9.02103503	     -4.07161952	      1.91165519	     -5.11768300	     11.68369385	      1.76270237	      5.13427680	      0.96005437	     12.77961775
      0.15000000	    -10.19761461	      3.00049846	    -31.42300219	     -0.99908129	      0.88371260	     -0.39329489	      9.45404067	      0.77829296	      1.66310095	     -4.30103293	      9.71958941	     -1.93739775	      9.07343240	     -4.06375653	      1.88145125	     -5.10719714	     11.62964523	      1.85716073	      5.16388225	      0.96342229	     12.76049107
      0.16000000	    -10.21629015	      3.00978198	    -31.44439620	     -0.99894895	      0.88369988	     -0.39347354	      9.48044199	      0.76808765	      1.67969810	     -4.30741330	      9.71288113	     -1.93956977	      9.08528935	     -4.05362040	      1.86016085	     -5.09171427	     11.62823586	      1.87422655	      5.15322068	      0.97130361	     12.72156633
      0.17000000	    -10.26515508	      3.05388310	    -31.48553645	     -0.99887759	      0.88363327	     -0.39365150	      9.56364173	      0.74681415	      1.73239223	     -4.32081758	      9.69602849	     -1.94899487	      9.15349899	     -4.03122434	      1.81208362	     -5.09418917	     11.57720283	      1.94192688	      5.19067671	      0.96608645	     12.72363398
      0.18000000	    -10.28510974	      3.06710036	    -31.50924990	     -0.99877739	      0.88361714	     -0.39384472	      9.59723770	      0.73485801	      1.75345898	     -4.32914803	      9.68879224	     -1.95076508	      9.17203523	     -4.01776689	      1.78922673	     -5.08115934	     11.57602791	      1.95549871	      5.17938289	      0.97263632	     12.68034155
      0.19000000	    -10.33526280	      3.11934095	    -31.54712340	     -0.99871988	      0.88353736	     -0.39404221	      9.68710737	      0.70611115	      1.80118044	     -4.34147600	      9.67502765	     -1.95315295	      9.25312581	     -3.98675798	      1.74403186	     -5.09517867	     11.53530873	      2.00065598	      5.22094820	      0.96301782	     12.66976668
      0.20000000	    -10.37394155	      3.15247475	    -31.56741985	     -0.99863017	      0.88348206	     -0.39425846	      9.75281738	      0.68461107	      1.82258211	     -4.35575611	      9.66979994	     -1.94920196	      9.31203084	     -3.96323296	      1.71519621	     -5.10436719	     11.52220455	      2.02902341	      5.23986422	      0.96757801	     12.62495196
      0.21000000	    -10.38930588	      3.16368978	    -31.58890199	     -0.99850776	      0.88346899	     -0.39444852	      9.77521778	      0.67117486	      1.83170258	     -4.35608905	      9.66178714	     -1.94729009	      9.32200127	     -3.94706157	      1.69773241	     -5.09001134	     11.52094544	      2.03201606	      5.22669134	      0.98109931	     12.57357192
